<mxfile host="app.diagrams.net" modified="2023-09-25T14:05:08.544Z" agent="Mozilla/5.0 (Windows NT 10.0; Win64; x64) AppleWebKit/537.36 (KHTML, like Gecko) Chrome/117.0.0.0 Safari/537.36 Edg/117.0.2045.41" version="21.8.2" etag="ESHHa7bR7hRIs3JimoBD" type="github">
  <diagram name="Страница — 1" id="duRDpsbKatkZgcwa1Jzg">
    <mxGraphModel>
      <root>
        <mxCell id="0" />
        <mxCell id="1" parent="0" />
      </root>
    </mxGraphModel>
  </diagram>
</mxfile>
